<svg width="23" height="23" viewBox="0 0 23 23" fill="none" xmlns="http://www.w3.org/2000/svg">
<path d="M0 23V20.125C0 16.9625 5.175 14.375 11.5 14.375C17.825 14.375 23 16.9625 23 20.125V23H0ZM5.75 5.74999C5.75 4.61275 6.08723 3.50103 6.71905 2.55545C7.35087 1.60987 8.2489 0.872875 9.29957 0.437671C10.3502 0.00246699 11.5064 -0.111369 12.6218 0.110496C13.7372 0.332361 14.7617 0.879969 15.5659 1.68412C16.37 2.48827 16.9177 3.51282 17.1395 4.62821C17.3614 5.74361 17.2475 6.89974 16.8123 7.95042C16.3771 9.00109 15.6401 9.89911 14.6945 10.5309C13.7489 11.1627 12.6372 11.5 11.5 11.5C9.97501 11.5 8.51247 10.8942 7.43414 9.81586C6.3558 8.73752 5.75 7.27498 5.75 5.74999Z" fill="#D19F4E"/>
</svg>
